# xmcd
#
# Track frame offsets:
#	150
#	17137
#	31220
#	48860
#	63990
#	76957
#	95280
#	110840
#	124425
#	137557
#	154000
#	170520
#	186457
#	198275
#	211657
#	225982
#
# Disc length: 3205
#
# Revision: 1
# Processed by: cddbd v1.5.1PL0 Copyright (c) Steve Scherf et al.
# Submitted via: ExactAudioCopy v0.90b4
# Normalized: r0:DSETVAR1,TDELIM( - )
#
DISCID=d00c8310
DTITLE=Various Artist - Stampede Country
DYEAR=1999
DGENRE=Country
TTITLE0=Chris Cummings - The Wild Wild West
TTITLE1=Terri Clark - Emotional Girl
TTITLE2=Paul Brandt - Dry Eye
TTITLE3=Deana Carter - We Danced Away
TTITLE4=George Fox - Do The Math
TTITLE5=Diamond Rio - How Your Love Makes Me Feel
TTITLE6=Sherrie Austin - Lucky In Love
TTITLE7=Clay Walker - Then What
TTITLE8=Patty Loveless - Can't Get Enough
TTITLE9=Collin Raye - I Can Still Feel You
TTITLE10=Farmer's Daughter - Blue Horizon
TTITLE11=Pam Tillis - Land Of The Living
TTITLE12=Chris Cummings - The Kind Of Heart That Breaks
TTITLE13=Lisa Brokop - What's Not To Love
TTITLE14=Dixie Chicks - There's Your Trouble
TTITLE15=Montgomery Gentry - Hillbilly Shoes
EXTD=
EXTT0=
EXTT1=
EXTT2=
EXTT3=
EXTT4=
EXTT5=
EXTT6=
EXTT7=
EXTT8=
EXTT9=
EXTT10=
EXTT11=
EXTT12=
EXTT13=
EXTT14=
EXTT15=
PLAYORDER=
